# This file uses centimeters as units for non-parametric coordinates.

mtllib Misil_Normal.mtl
g default
v -1.063751 2.471794 0.199474
v -0.063939 2.470762 -0.112423
v -1.236368 2.472693 0.471318
v -0.063939 2.471447 0.094793
v -1.236368 2.579970 0.470963
v -0.063939 2.578724 0.094438
v -1.063751 2.579070 0.199119
v -0.063939 2.578038 -0.112778
vt 0.125000 0.000000
vt 0.250000 0.000000
vt 0.125000 0.125000
vt 0.250000 0.125000
vt 0.125000 0.250000
vt 0.250000 0.250000
vt 0.125000 0.375000
vt 0.250000 0.375000
vt 0.125000 0.500000
vt 0.250000 0.500000
vt 0.375000 0.000000
vt 0.375000 0.125000
vt 0.000000 0.000000
vt 0.000000 0.125000
vn -0.000000 -0.999994 0.003308
vn -0.000000 -0.999994 0.003308
vn -0.000000 -0.999994 0.003308
vn -0.000000 -0.999994 0.003308
vn 0.305770 0.003150 0.952100
vn 0.305770 0.003150 0.952100
vn 0.305770 0.003150 0.952100
vn 0.305770 0.003150 0.952100
vn 0.000000 0.999994 -0.003308
vn 0.000000 0.999994 -0.003308
vn 0.000000 0.999994 -0.003308
vn 0.000000 0.999994 -0.003308
vn -0.297803 -0.003158 -0.954622
vn -0.297803 -0.003158 -0.954622
vn -0.297803 -0.003158 -0.954622
vn -0.297803 -0.003158 -0.954622
vn 1.000000 0.000000 0.000000
vn 1.000000 0.000000 0.000000
vn 1.000000 0.000000 0.000000
vn 1.000000 0.000000 0.000000
vn -0.844190 -0.001773 -0.536041
vn -0.844190 -0.001773 -0.536041
vn -0.844190 -0.001773 -0.536041
vn -0.844190 -0.001773 -0.536041
s off
g pCube3 normal
usemtl initialShadingGroup
f 1/1/1 2/2/2 4/4/3 3/3/4
f 3/3/5 4/4/6 6/6/7 5/5/8
f 5/5/9 6/6/10 8/8/11 7/7/12
f 7/7/13 8/8/14 2/10/15 1/9/16
f 2/2/17 8/11/18 6/12/19 4/4/20
f 7/13/21 1/1/22 3/3/23 5/14/24
g default
v -1.063751 2.767761 0.053639
v -0.063939 2.455862 0.053639
v -1.236368 3.039606 0.053639
v -0.063939 2.663079 0.053639
v -1.236368 3.039606 -0.053639
v -0.063939 2.663079 -0.053639
v -1.063751 2.767761 -0.053639
v -0.063939 2.455862 -0.053639
vt 0.500250 0.000000
vt 0.625250 0.000000
vt 0.500250 0.125000
vt 0.625250 0.125000
vt 0.500250 0.250000
vt 0.625250 0.250000
vt 0.500250 0.375000
vt 0.625250 0.375000
vt 0.500250 0.500000
vt 0.625250 0.500000
vt 0.750250 0.000000
vt 0.750250 0.125000
vt 0.375250 0.000000
vt 0.375250 0.125000
vn -0.000000 0.000000 1.000000
vn -0.000000 0.000000 1.000000
vn -0.000000 0.000000 1.000000
vn -0.000000 0.000000 1.000000
vn 0.305770 0.952105 0.000000
vn 0.305770 0.952105 0.000000
vn 0.305770 0.952105 0.000000
vn 0.305770 0.952105 0.000000
vn 0.000000 0.000000 -1.000000
vn 0.000000 0.000000 -1.000000
vn 0.000000 0.000000 -1.000000
vn 0.000000 0.000000 -1.000000
vn -0.297804 -0.954627 0.000000
vn -0.297804 -0.954627 0.000000
vn -0.297804 -0.954627 0.000000
vn -0.297804 -0.954627 0.000000
vn 1.000000 0.000000 0.000000
vn 1.000000 0.000000 0.000000
vn 1.000000 0.000000 0.000000
vn 1.000000 0.000000 0.000000
vn -0.844190 -0.536044 0.000000
vn -0.844190 -0.536044 0.000000
vn -0.844190 -0.536044 0.000000
vn -0.844190 -0.536044 0.000000
s off
g normal pCube1
usemtl initialShadingGroup
f 9/15/25 10/16/26 12/18/27 11/17/28
f 11/17/29 12/18/30 14/20/31 13/19/32
f 13/19/33 14/20/34 16/22/35 15/21/36
f 15/21/37 16/22/38 10/24/39 9/23/40
f 10/16/41 16/25/42 14/26/43 12/18/44
f 15/27/45 9/15/46 11/17/47 13/28/48
g default
v -1.063751 2.576378 -0.205460
v -0.063939 2.580636 0.106411
v -1.236368 2.572667 -0.477280
v -0.063939 2.577807 -0.100787
v -1.236368 2.465400 -0.475815
v -0.063939 2.470540 -0.099323
v -1.063751 2.469111 -0.203995
v -0.063939 2.473369 0.107875
vt 0.125000 0.500000
vt 0.250000 0.500000
vt 0.125000 0.625000
vt 0.250000 0.625000
vt 0.125000 0.750000
vt 0.250000 0.750000
vt 0.125000 0.875000
vt 0.250000 0.875000
vt 0.125000 1.000000
vt 0.250000 1.000000
vt 0.375000 0.500000
vt 0.375000 0.625000
vt 0.000000 0.500000
vt 0.000000 0.625000
vn -0.000000 0.999907 -0.013651
vn -0.000000 0.999907 -0.013651
vn -0.000000 0.999907 -0.013651
vn -0.000000 0.999907 -0.013651
vn 0.305770 -0.012997 -0.952017
vn 0.305770 -0.012997 -0.952017
vn 0.305770 -0.012997 -0.952017
vn 0.305770 -0.012997 -0.952017
vn 0.000000 -0.999907 0.013651
vn 0.000000 -0.999907 0.013651
vn 0.000000 -0.999907 0.013651
vn 0.000000 -0.999907 0.013651
vn -0.297803 0.013032 0.954538
vn -0.297803 0.013032 0.954538
vn -0.297803 0.013032 0.954538
vn -0.297803 0.013032 0.954538
vn 1.000000 0.000000 0.000000
vn 1.000000 0.000000 0.000000
vn 1.000000 0.000000 0.000000
vn 1.000000 0.000000 0.000000
vn -0.844190 0.007318 0.535994
vn -0.844190 0.007318 0.535994
vn -0.844190 0.007318 0.535994
vn -0.844190 0.007318 0.535994
s off
g normal pCube2
usemtl initialShadingGroup
f 17/29/49 18/30/50 20/32/51 19/31/52
f 19/31/53 20/32/54 22/34/55 21/33/56
f 21/33/57 22/34/58 24/36/59 23/35/60
f 23/35/61 24/36/62 18/38/63 17/37/64
f 18/30/65 24/39/66 22/40/67 20/32/68
f 23/41/69 17/29/70 19/31/71 21/42/72
g default
v -0.910076 2.374253 -0.052965
v -0.909671 2.398595 -0.100746
v -0.909040 2.436509 -0.138665
v -0.908245 2.484283 -0.163011
v -0.907363 2.537241 -0.171400
v -0.906482 2.590199 -0.163011
v -0.905687 2.637973 -0.138665
v -0.905056 2.675887 -0.100746
v -0.904651 2.700230 -0.052965
v -0.904512 2.708617 0.000000
v -0.904651 2.700230 0.052965
v -0.905056 2.675887 0.100746
v -0.905687 2.637973 0.138665
v -0.906482 2.590199 0.163011
v -0.907363 2.537241 0.171400
v -0.908245 2.484283 0.163011
v -0.909040 2.436509 0.138665
v -0.909671 2.398595 0.100746
v -0.910076 2.374253 0.052965
v -0.910215 2.365865 0.000000
v 1.396690 2.507042 0.000000
v 0.646504 2.348349 -0.052965
v 0.816636 2.355040 -0.050019
v 0.984822 2.380681 -0.041219
v 1.148762 2.424916 -0.026688
v 0.646941 2.372691 -0.100746
v 0.817048 2.378030 -0.095140
v 0.985179 2.399635 -0.078397
v 1.149061 2.437208 -0.050744
v 0.647633 2.410604 -0.138665
v 0.817699 2.413837 -0.130945
v 0.985751 2.429152 -0.107884
v 1.149559 2.456341 -0.069793
v 0.648511 2.458377 -0.163011
v 0.818523 2.458953 -0.153928
v 0.986480 2.466331 -0.126794
v 1.150204 2.480414 -0.081965
v 0.649489 2.511333 -0.171400
v 0.819440 2.508960 -0.161840
v 0.987294 2.507523 -0.133280
v 1.150933 2.507042 -0.086083
v 0.650471 2.564290 -0.163011
v 0.820361 2.558960 -0.153910
v 0.988115 2.548690 -0.126718
v 1.151672 2.533607 -0.081771
v 0.651361 2.612062 -0.138665
v 0.821195 2.604061 -0.130917
v 0.988860 2.585805 -0.107761
v 1.152349 2.557515 -0.069479
v 0.652072 2.649975 -0.100746
v 0.821860 2.639849 -0.095112
v 0.989457 2.615242 -0.078274
v 1.152899 2.576446 -0.050431
v 0.652534 2.674316 -0.052965
v 0.822292 2.662824 -0.050002
v 0.989850 2.634131 -0.041143
v 1.153270 2.588574 -0.026495
v 0.652704 2.682703 0.000000
v 0.822449 2.670739 0.000000
v 0.990000 2.640633 0.000000
v 1.153428 2.592739 0.000000
v 0.652503 2.674317 0.052965
v 0.822281 2.662823 0.050001
v 0.989860 2.634127 0.041142
v 1.153300 2.588564 0.026492
v 0.652011 2.649976 0.100746
v 0.821839 2.639848 0.095111
v 0.989476 2.615234 0.078268
v 1.152956 2.576429 0.050419
v 0.651277 2.612064 0.138665
v 0.821166 2.604059 0.130914
v 0.988886 2.585798 0.107751
v 1.152428 2.557498 0.069457
v 0.650371 2.564292 0.163011
v 0.820327 2.558960 0.153907
v 0.988146 2.548686 0.126704
v 1.151766 2.533597 0.081739
v 0.649382 2.511335 0.171400
v 0.819404 2.508960 0.161836
v 0.987328 2.507523 0.133264
v 1.151033 2.507042 0.086048
v 0.648408 2.458379 0.163011
v 0.818488 2.458955 0.153924
v 0.986512 2.466336 0.126780
v 1.150301 2.480424 0.081933
v 0.647544 2.410606 0.138665
v 0.817668 2.413840 0.130942
v 0.985778 2.429160 0.107874
v 1.149642 2.456359 0.069769
v 0.646876 2.372693 0.100746
v 0.817026 2.378033 0.095139
v 0.985199 2.399643 0.078391
v 1.149122 2.437226 0.050732
v 0.646469 2.348350 0.052965
v 0.816625 2.355042 0.050019
v 0.984833 2.380686 0.041218
v 1.148794 2.424926 0.026685
v 0.646364 2.339962 0.000000
v 0.816504 2.347120 0.000000
v 0.984715 2.374155 0.000000
v 1.148691 2.420689 0.000000
vt 0.251107 0.125000
vt 0.257357 0.125000
vt 0.251107 0.286231
vt 0.263607 0.125000
vt 0.257357 0.286234
vt 0.269857 0.125000
vt 0.263607 0.286241
vt 0.276107 0.125000
vt 0.269857 0.286248
vt 0.282357 0.125000
vt 0.276107 0.286259
vt 0.288607 0.125000
vt 0.282357 0.286269
vt 0.294857 0.125000
vt 0.288607 0.286279
vt 0.301107 0.125000
vt 0.294857 0.286288
vt 0.307357 0.125000
vt 0.301107 0.286294
vt 0.313607 0.125000
vt 0.307357 0.286297
vt 0.319857 0.125000
vt 0.313607 0.286290
vt 0.326107 0.125000
vt 0.319857 0.286281
vt 0.332357 0.125000
vt 0.326107 0.286271
vt 0.338607 0.125000
vt 0.332357 0.286259
vt 0.344857 0.125000
vt 0.338607 0.286248
vt 0.351107 0.125000
vt 0.344857 0.286239
vt 0.357357 0.125000
vt 0.351107 0.286231
vt 0.363607 0.125000
vt 0.357357 0.286228
vt 0.369857 0.125000
vt 0.363607 0.286227
vt 0.376107 0.125000
vt 0.369857 0.286231
vt 0.860460 0.099704
vt 0.851738 0.108385
vt 0.840764 0.113931
vt 0.828625 0.115807
vt 0.816515 0.113839
vt 0.805616 0.108235
vt 0.796986 0.099551
vt 0.791457 0.088640
vt 0.789558 0.076563
vt 0.791462 0.064488
vt 0.796993 0.053582
vt 0.805623 0.044906
vt 0.816519 0.039310
vt 0.828625 0.037348
vt 0.840759 0.039225
vt 0.851730 0.044771
vt 0.860452 0.053450
vt 0.866059 0.064411
vt 0.867990 0.076575
vt 0.866064 0.088739
vt 0.828625 0.075000
vt 0.376107 0.286231
vt 0.251107 0.297892
vt 0.376107 0.297892
vt 0.251107 0.312970
vt 0.902926 0.102267
vt 0.376107 0.312970
vt 0.257330 0.297269
vt 0.257357 0.312970
vt 0.891829 0.124046
vt 0.263567 0.297182
vt 0.263607 0.312970
vt 0.874546 0.141330
vt 0.269810 0.297200
vt 0.269857 0.312970
vt 0.852767 0.152426
vt 0.276057 0.297242
vt 0.276107 0.312970
vt 0.828625 0.156250
vt 0.282310 0.297288
vt 0.282357 0.312970
vt 0.804483 0.152426
vt 0.288567 0.297330
vt 0.288607 0.312970
vt 0.782704 0.141330
vt 0.294828 0.297364
vt 0.294857 0.312970
vt 0.765420 0.124046
vt 0.301093 0.297385
vt 0.301107 0.312970
vt 0.754324 0.102267
vt 0.307359 0.297393
vt 0.307357 0.312970
vt 0.750500 0.078125
vt 0.313625 0.297384
vt 0.313607 0.312970
vt 0.754324 0.053983
vt 0.319888 0.297360
vt 0.319857 0.312970
vt 0.765420 0.032204
vt 0.326149 0.297325
vt 0.326107 0.312970
vt 0.782704 0.014921
vt 0.332405 0.297282
vt 0.332357 0.312970
vt 0.804483 0.003824
vt 0.338657 0.297235
vt 0.338607 0.312970
vt 0.828625 0.000000
vt 0.344904 0.297189
vt 0.344857 0.312970
vt 0.852767 0.003824
vt 0.351146 0.297149
vt 0.351107 0.312970
vt 0.874546 0.014921
vt 0.357384 0.297122
vt 0.357357 0.312970
vt 0.891829 0.032204
vt 0.363621 0.297125
vt 0.363607 0.312970
vt 0.902926 0.053983
vt 0.369858 0.297241
vt 0.906750 0.078125
vt 0.369857 0.312970
vn -0.015825 -0.950925 -0.309018
vn -0.013461 -0.808903 -0.587788
vn -0.008020 -0.809019 -0.587728
vn -0.010350 -0.951013 -0.308979
vn -0.009780 -0.587701 -0.809019
vn -0.004390 -0.587852 -0.808957
vn -0.005142 -0.308970 -0.951058
vn 0.000184 -0.309149 -0.951014
vn 0.000000 0.000005 -1.000000
vn 0.005255 -0.000186 -0.999986
vn 0.005142 0.308979 -0.951055
vn 0.010326 0.308796 -0.951072
vn 0.009780 0.587708 -0.809014
vn 0.014900 0.587548 -0.809052
vn 0.013461 0.808906 -0.587784
vn 0.018531 0.808777 -0.587824
vn 0.015824 0.950926 -0.309013
vn 0.020863 0.950821 -0.309036
vn 0.016639 0.999862 0.000001
vn 0.021667 0.999765 -0.000002
vn 0.015824 0.950927 0.309012
vn 0.020864 0.950823 0.309030
vn 0.013461 0.808907 0.587782
vn 0.018533 0.808780 0.587819
vn 0.009780 0.587708 0.809014
vn 0.014902 0.587551 0.809050
vn 0.005142 0.308980 0.951055
vn 0.010328 0.308798 0.951072
vn 0.000000 0.000005 1.000000
vn 0.005257 -0.000186 0.999986
vn -0.005142 -0.308970 0.951058
vn 0.000186 -0.309150 0.951013
vn -0.009780 -0.587702 0.809018
vn -0.004389 -0.587855 0.808954
vn -0.013461 -0.808904 0.587787
vn -0.008019 -0.809022 0.587723
vn -0.015824 -0.950925 0.309018
vn -0.010349 -0.951014 0.308974
vn -0.016639 -0.999862 0.000001
vn -0.011152 -0.999938 -0.000002
vn 0.292091 -0.909964 -0.294362
vn 0.292551 -0.774975 -0.560203
vn 0.999680 0.025294 -0.000583
vn 0.293268 -0.564469 -0.771601
vn 0.294170 -0.298797 -0.907846
vn 0.295165 -0.003777 -0.955439
vn 0.296155 0.291778 -0.909482
vn 0.297044 0.558839 -0.774251
vn 0.297748 0.771066 -0.562854
vn 0.298198 0.907448 -0.295999
vn 0.298358 0.954454 0.000021
vn 0.298194 0.907438 0.296036
vn 0.297741 0.771047 0.562883
vn 0.297036 0.558821 0.774267
vn 0.296145 0.291768 0.909489
vn 0.295154 -0.003776 0.955442
vn 0.294159 -0.298785 0.907854
vn 0.293260 -0.564449 0.771619
vn 0.292545 -0.774955 0.560234
vn 0.292087 -0.909951 0.294405
vn 0.291938 -0.956437 0.000022
vn 0.203882 -0.931392 -0.301566
vn 0.203542 -0.979066 0.000038
vn 0.094684 -0.947018 -0.306907
vn 0.094109 -0.995562 0.000034
vn 0.204889 -0.792950 -0.573804
vn 0.096369 -0.806089 -0.583895
vn 0.206470 -0.577179 -0.790085
vn 0.099005 -0.586493 -0.803881
vn 0.208465 -0.305061 -0.929236
vn 0.102333 -0.309618 -0.945338
vn 0.210678 -0.003126 -0.977550
vn 0.106025 -0.002485 -0.994360
vn 0.212891 0.299112 -0.930166
vn 0.109721 0.304880 -0.946049
vn 0.214887 0.572017 -0.791593
vn 0.113057 0.582357 -0.805033
vn 0.216473 0.788766 -0.575315
vn 0.115709 0.802701 -0.585049
vn 0.217497 0.928002 -0.302503
vn 0.117417 0.944236 -0.307621
vn 0.217856 0.975981 0.000033
vn 0.118011 0.993012 0.000028
vn 0.217496 0.927982 0.302563
vn 0.117417 0.944220 0.307670
vn 0.216471 0.788735 0.575359
vn 0.115708 0.802676 0.585083
vn 0.214884 0.571987 0.791616
vn 0.113056 0.582331 0.805052
vn 0.212887 0.299090 0.930174
vn 0.109719 0.304864 0.946055
vn 0.210674 -0.003129 0.977551
vn 0.106023 -0.002486 0.994361
vn 0.208461 -0.305043 0.929243
vn 0.102331 -0.309603 0.945344
vn 0.206466 -0.577147 0.790109
vn 0.099003 -0.586466 0.803900
vn 0.204886 -0.792917 0.573850
vn 0.096367 -0.806062 0.583933
vn 0.203880 -0.931370 0.301635
vn 0.094683 -0.946999 0.306965
s 1
g normal pCylinder1
usemtl initialShadingGroup
f 25/43/73 26/44/74 50/47/75 46/45/76
f 26/44/74 27/46/77 54/49/78 50/47/75
f 27/46/77 28/48/79 58/51/80 54/49/78
f 28/48/79 29/50/81 62/53/82 58/51/80
f 29/50/81 30/52/83 66/55/84 62/53/82
f 30/52/83 31/54/85 70/57/86 66/55/84
f 31/54/85 32/56/87 74/59/88 70/57/86
f 32/56/87 33/58/89 78/61/90 74/59/88
f 33/58/89 34/60/91 82/63/92 78/61/90
f 34/60/91 35/62/93 86/65/94 82/63/92
f 35/62/93 36/64/95 90/67/96 86/65/94
f 36/64/95 37/66/97 94/69/98 90/67/96
f 37/66/97 38/68/99 98/71/100 94/69/98
f 38/68/99 39/70/101 102/73/102 98/71/100
f 39/70/101 40/72/103 106/75/104 102/73/102
f 40/72/103 41/74/105 110/77/106 106/75/104
f 41/74/105 42/76/107 114/79/108 110/77/106
f 42/76/107 43/78/109 118/81/110 114/79/108
f 43/78/109 44/80/111 122/83/112 118/81/110
f 44/80/111 25/82/73 46/105/76 122/83/112
f 49/103/113 53/84/114 45/104/115
f 53/84/114 57/85/116 45/104/115
f 57/85/116 61/86/117 45/104/115
f 61/86/117 65/87/118 45/104/115
f 65/87/118 69/88/119 45/104/115
f 69/88/119 73/89/120 45/104/115
f 73/89/120 77/90/121 45/104/115
f 77/90/121 81/91/122 45/104/115
f 81/91/122 85/92/123 45/104/115
f 85/92/123 89/93/124 45/104/115
f 89/93/124 93/94/125 45/104/115
f 93/94/125 97/95/126 45/104/115
f 97/95/126 101/96/127 45/104/115
f 101/96/127 105/97/128 45/104/115
f 105/97/128 109/98/129 45/104/115
f 109/98/129 113/99/130 45/104/115
f 113/99/130 117/100/131 45/104/115
f 117/100/131 121/101/132 45/104/115
f 121/101/132 125/102/133 45/104/115
f 125/102/133 49/103/113 45/104/115
f 48/109/134 49/103/113 125/102/133 124/166/135
f 46/105/76 47/107/136 123/165/137 122/83/112
f 47/107/136 48/110/134 124/167/135 123/165/137
f 49/103/113 48/109/134 52/113/138 53/84/114
f 48/108/134 47/106/136 51/111/139 52/112/138
f 47/106/136 46/45/76 50/47/75 51/111/139
f 53/84/114 52/113/138 56/116/140 57/85/116
f 52/112/138 51/111/139 55/114/141 56/115/140
f 51/111/139 50/47/75 54/49/78 55/114/141
f 57/85/116 56/116/140 60/119/142 61/86/117
f 56/115/140 55/114/141 59/117/143 60/118/142
f 55/114/141 54/49/78 58/51/80 59/117/143
f 61/86/117 60/119/142 64/122/144 65/87/118
f 60/118/142 59/117/143 63/120/145 64/121/144
f 59/117/143 58/51/80 62/53/82 63/120/145
f 65/87/118 64/122/144 68/125/146 69/88/119
f 64/121/144 63/120/145 67/123/147 68/124/146
f 63/120/145 62/53/82 66/55/84 67/123/147
f 69/88/119 68/125/146 72/128/148 73/89/120
f 68/124/146 67/123/147 71/126/149 72/127/148
f 67/123/147 66/55/84 70/57/86 71/126/149
f 73/89/120 72/128/148 76/131/150 77/90/121
f 72/127/148 71/126/149 75/129/151 76/130/150
f 71/126/149 70/57/86 74/59/88 75/129/151
f 77/90/121 76/131/150 80/134/152 81/91/122
f 76/130/150 75/129/151 79/132/153 80/133/152
f 75/129/151 74/59/88 78/61/90 79/132/153
f 81/91/122 80/134/152 84/137/154 85/92/123
f 80/133/152 79/132/153 83/135/155 84/136/154
f 79/132/153 78/61/90 82/63/92 83/135/155
f 85/92/123 84/137/154 88/140/156 89/93/124
f 84/136/154 83/135/155 87/138/157 88/139/156
f 83/135/155 82/63/92 86/65/94 87/138/157
f 89/93/124 88/140/156 92/143/158 93/94/125
f 88/139/156 87/138/157 91/141/159 92/142/158
f 87/138/157 86/65/94 90/67/96 91/141/159
f 93/94/125 92/143/158 96/146/160 97/95/126
f 92/142/158 91/141/159 95/144/161 96/145/160
f 91/141/159 90/67/96 94/69/98 95/144/161
f 97/95/126 96/146/160 100/149/162 101/96/127
f 96/145/160 95/144/161 99/147/163 100/148/162
f 95/144/161 94/69/98 98/71/100 99/147/163
f 101/96/127 100/149/162 104/152/164 105/97/128
f 100/148/162 99/147/163 103/150/165 104/151/164
f 99/147/163 98/71/100 102/73/102 103/150/165
f 105/97/128 104/152/164 108/155/166 109/98/129
f 104/151/164 103/150/165 107/153/167 108/154/166
f 103/150/165 102/73/102 106/75/104 107/153/167
f 109/98/129 108/155/166 112/158/168 113/99/130
f 108/154/166 107/153/167 111/156/169 112/157/168
f 107/153/167 106/75/104 110/77/106 111/156/169
f 113/99/130 112/158/168 116/161/170 117/100/131
f 112/157/168 111/156/169 115/159/171 116/160/170
f 111/156/169 110/77/106 114/79/108 115/159/171
f 117/100/131 116/161/170 120/164/172 121/101/132
f 116/160/170 115/159/171 119/162/173 120/163/172
f 115/159/171 114/79/108 118/81/110 119/162/173
f 121/101/132 120/164/172 124/166/135 125/102/133
f 120/163/172 119/162/173 123/165/137 124/167/135
f 119/162/173 118/81/110 122/83/112 123/165/137
g default
v -1.063751 2.328009 -0.060842
v -0.063939 2.639903 -0.062736
v -1.236368 2.056169 -0.059192
v -0.063939 2.432690 -0.061478
v -1.236368 2.056821 0.048083
v -0.063939 2.433341 0.045798
v -1.063751 2.328661 0.046433
v -0.063939 2.640554 0.044539
vt 0.500250 0.500000
vt 0.625250 0.500000
vt 0.500250 0.625000
vt 0.625250 0.625000
vt 0.500250 0.750000
vt 0.625250 0.750000
vt 0.500250 0.875000
vt 0.625250 0.875000
vt 0.500250 1.000000
vt 0.625250 1.000000
vt 0.750250 0.500000
vt 0.750250 0.625000
vt 0.375250 0.500000
vt 0.375250 0.625000
vn -0.000000 -0.006071 -0.999982
vn -0.000000 -0.006071 -0.999982
vn -0.000000 -0.006071 -0.999982
vn -0.000000 -0.006071 -0.999982
vn 0.305770 -0.952088 0.005780
vn 0.305770 -0.952088 0.005780
vn 0.305770 -0.952088 0.005780
vn 0.305770 -0.952088 0.005780
vn 0.000000 0.006071 0.999982
vn 0.000000 0.006071 0.999982
vn 0.000000 0.006071 0.999982
vn 0.000000 0.006071 0.999982
vn -0.297803 0.954610 -0.005796
vn -0.297803 0.954610 -0.005796
vn -0.297803 0.954610 -0.005796
vn -0.297803 0.954610 -0.005796
vn 1.000000 0.000000 0.000000
vn 1.000000 0.000000 0.000000
vn 1.000000 0.000000 0.000000
vn 1.000000 0.000000 0.000000
vn -0.844190 0.536034 -0.003254
vn -0.844190 0.536034 -0.003254
vn -0.844190 0.536034 -0.003254
vn -0.844190 0.536034 -0.003254
s off
g normal pCube4
usemtl initialShadingGroup
f 126/168/174 127/169/175 129/171/176 128/170/177
f 128/170/178 129/171/179 131/173/180 130/172/181
f 130/172/182 131/173/183 133/175/184 132/174/185
f 132/174/186 133/175/187 127/177/188 126/176/189
f 127/169/190 133/178/191 131/179/192 129/171/193
f 132/180/194 126/168/195 128/170/196 130/181/197
