# This file uses centimeters as units for non-parametric coordinates.

mtllib muro.mtl
g default
v -0.007561 -1.042378 -23.737963
v 0.615305 -0.946121 -23.737963
v 1.177941 -0.662098 -23.737963
v 1.625272 -0.218113 -23.737963
v 1.913509 0.342375 -23.737963
v 2.014439 0.964501 -23.737963
v 1.918182 1.587367 -23.737963
v 1.634160 2.150002 -23.737963
v 1.190175 2.597333 -23.737963
v 0.629687 2.885571 -23.737963
v 0.007561 2.986501 -23.737963
v -0.615305 2.890244 -23.737963
v -1.177940 2.606221 -23.737963
v -1.625271 2.162236 -23.737963
v -1.913509 1.601749 -23.737963
v -2.014439 0.979623 -23.737963
v -1.918182 0.356757 -23.737963
v -1.634159 -0.205878 -23.737963
v -1.190174 -0.653209 -23.737963
v -0.629687 -0.941447 -23.737963
v -0.007561 -1.042378 23.737963
v 0.615305 -0.946121 23.737963
v 1.177941 -0.662098 23.737963
v 1.625272 -0.218113 23.737963
v 1.913509 0.342375 23.737963
v 2.014439 0.964501 23.737963
v 1.918182 1.587367 23.737963
v 1.634160 2.150002 23.737963
v 1.190175 2.597333 23.737963
v 0.629687 2.885571 23.737963
v 0.007561 2.986501 23.737963
v -0.615305 2.890244 23.737963
v -1.177940 2.606221 23.737963
v -1.625271 2.162236 23.737963
v -1.913509 1.601749 23.737963
v -2.014439 0.979623 23.737963
v -1.918182 0.356757 23.737963
v -1.634159 -0.205878 23.737963
v -1.190174 -0.653209 23.737963
v -0.629687 -0.941447 23.737963
v -0.000000 0.972062 -23.737963
v 0.000000 0.972062 23.737963
vt 0.648603 0.107966
vt 0.626409 0.064408
vt 0.591842 0.029841
vt 0.548284 0.007647
vt 0.500000 -0.000000
vt 0.451716 0.007647
vt 0.408159 0.029841
vt 0.373591 0.064409
vt 0.351397 0.107966
vt 0.343750 0.156250
vt 0.351397 0.204534
vt 0.373591 0.248091
vt 0.408159 0.282659
vt 0.451716 0.304853
vt 0.500000 0.312500
vt 0.548284 0.304853
vt 0.591841 0.282659
vt 0.626409 0.248091
vt 0.648603 0.204534
vt 0.656250 0.156250
vt 0.086269 0.622764
vt 0.086659 0.610265
vt 0.087050 0.597767
vt 0.087440 0.585268
vt 0.087831 0.572769
vt 0.088221 0.560270
vt 0.088611 0.547772
vt 0.089002 0.535273
vt 0.089392 0.522774
vt 0.089783 0.510276
vt 0.090173 0.497777
vt 0.090564 0.485278
vt 0.090954 0.472780
vt 0.091345 0.460281
vt 0.091735 0.447782
vt 0.092126 0.435283
vt 0.092516 0.422785
vt 0.092907 0.410286
vt 0.093297 0.397787
vt 0.093688 0.385289
vt 0.094078 0.372790
vt 0.905922 0.628150
vt 0.906312 0.615651
vt 0.906702 0.603153
vt 0.907093 0.590654
vt 0.907483 0.578155
vt 0.907874 0.565656
vt 0.908264 0.553158
vt 0.908655 0.540659
vt 0.909045 0.528160
vt 0.909436 0.515662
vt 0.909826 0.503163
vt 0.910217 0.490664
vt 0.910607 0.478165
vt 0.910998 0.465667
vt 0.911388 0.453168
vt 0.911779 0.440669
vt 0.912169 0.428171
vt 0.912560 0.415672
vt 0.912950 0.403173
vt 0.913341 0.390675
vt 0.913731 0.378176
vt 0.648603 0.795466
vt 0.626409 0.751908
vt 0.591842 0.717341
vt 0.548284 0.695147
vt 0.500000 0.687500
vt 0.451716 0.695147
vt 0.408159 0.717341
vt 0.373591 0.751909
vt 0.351397 0.795466
vt 0.343750 0.843750
vt 0.351397 0.892034
vt 0.373591 0.935591
vt 0.408159 0.970159
vt 0.451716 0.992353
vt 0.500000 1.000000
vt 0.548284 0.992353
vt 0.591841 0.970159
vt 0.626409 0.935591
vt 0.648603 0.892034
vt 0.656250 0.843750
vt 0.500000 0.150000
vt 0.500000 0.837500
vn -0.003754 -0.999993 0.000000
vn 0.305445 -0.952210 -0.000000
vn 0.305445 -0.952210 -0.000000
vn -0.003754 -0.999993 0.000000
vn 0.584745 -0.811217 -0.000000
vn 0.584745 -0.811217 -0.000000
vn 0.806805 -0.590818 -0.000000
vn 0.806805 -0.590818 -0.000000
vn 0.949890 -0.312584 -0.000000
vn 0.949890 -0.312584 -0.000000
vn 0.999993 -0.003753 -0.000000
vn 0.999993 -0.003753 -0.000000
vn 0.952210 0.305445 -0.000000
vn 0.952210 0.305445 -0.000000
vn 0.811217 0.584745 -0.000000
vn 0.811217 0.584745 -0.000000
vn 0.590818 0.806805 -0.000000
vn 0.590818 0.806805 -0.000000
vn 0.312585 0.949890 -0.000000
vn 0.312585 0.949890 -0.000000
vn 0.003753 0.999993 -0.000000
vn 0.003753 0.999993 -0.000000
vn -0.305445 0.952210 0.000000
vn -0.305445 0.952210 0.000000
vn -0.584745 0.811217 0.000000
vn -0.584745 0.811217 0.000000
vn -0.806805 0.590818 0.000000
vn -0.806805 0.590818 0.000000
vn -0.949890 0.312584 0.000000
vn -0.949890 0.312584 0.000000
vn -0.999993 0.003753 0.000000
vn -0.999993 0.003753 0.000000
vn -0.952210 -0.305445 0.000000
vn -0.952210 -0.305445 0.000000
vn -0.811218 -0.584745 0.000000
vn -0.811218 -0.584745 0.000000
vn -0.590818 -0.806805 0.000000
vn -0.590818 -0.806805 0.000000
vn -0.312585 -0.949890 0.000000
vn -0.312585 -0.949890 0.000000
vn -0.000000 0.000000 -1.000000
vn -0.000000 0.000000 -1.000000
vn -0.000000 0.000000 -1.000000
vn -0.000000 0.000000 -1.000000
vn -0.000000 0.000000 -1.000000
vn -0.000000 0.000000 -1.000000
vn -0.000000 0.000000 -1.000000
vn -0.000000 0.000000 -1.000000
vn -0.000000 0.000000 -1.000000
vn -0.000000 0.000000 -1.000000
vn -0.000000 0.000000 -1.000000
vn -0.000000 0.000000 -1.000000
vn -0.000000 0.000000 -1.000000
vn -0.000000 0.000000 -1.000000
vn -0.000000 0.000000 -1.000000
vn -0.000000 0.000000 -1.000000
vn -0.000000 0.000000 -1.000000
vn -0.000000 0.000000 -1.000000
vn -0.000000 0.000000 -1.000000
vn -0.000000 0.000000 -1.000000
vn -0.000000 0.000000 -1.000000
vn 0.000000 -0.000000 1.000000
vn 0.000000 -0.000000 1.000000
vn 0.000000 -0.000000 1.000000
vn 0.000000 -0.000000 1.000000
vn 0.000000 -0.000000 1.000000
vn 0.000000 -0.000000 1.000000
vn 0.000000 -0.000000 1.000000
vn 0.000000 -0.000000 1.000000
vn 0.000000 -0.000000 1.000000
vn 0.000000 -0.000000 1.000000
vn 0.000000 -0.000000 1.000000
vn 0.000000 -0.000000 1.000000
vn 0.000000 -0.000000 1.000000
vn 0.000000 -0.000000 1.000000
vn 0.000000 -0.000000 1.000000
vn 0.000000 -0.000000 1.000000
vn 0.000000 -0.000000 1.000000
vn 0.000000 -0.000000 1.000000
vn 0.000000 -0.000000 1.000000
vn 0.000000 -0.000000 1.000000
vn 0.000000 -0.000000 1.000000
s 1
g pCylinder1
usemtl aiStandardSurface1SG
f 1/21/1 2/22/2 22/43/3 21/42/4
f 2/22/2 3/23/5 23/44/6 22/43/3
f 3/23/5 4/24/7 24/45/8 23/44/6
f 4/24/7 5/25/9 25/46/10 24/45/8
f 5/25/9 6/26/11 26/47/12 25/46/10
f 6/26/11 7/27/13 27/48/14 26/47/12
f 7/27/13 8/28/15 28/49/16 27/48/14
f 8/28/15 9/29/17 29/50/18 28/49/16
f 9/29/17 10/30/19 30/51/20 29/50/18
f 10/30/19 11/31/21 31/52/22 30/51/20
f 11/31/21 12/32/23 32/53/24 31/52/22
f 12/32/23 13/33/25 33/54/26 32/53/24
f 13/33/25 14/34/27 34/55/28 33/54/26
f 14/34/27 15/35/29 35/56/30 34/55/28
f 15/35/29 16/36/31 36/57/32 35/56/30
f 16/36/31 17/37/33 37/58/34 36/57/32
f 17/37/33 18/38/35 38/59/36 37/58/34
f 18/38/35 19/39/37 39/60/38 38/59/36
f 19/39/37 20/40/39 40/61/40 39/60/38
f 20/40/39 1/41/1 21/62/4 40/61/40
s 2
f 2/2/41 1/1/42 41/83/43
f 3/3/44 2/2/41 41/83/43
f 4/4/45 3/3/44 41/83/43
f 5/5/46 4/4/45 41/83/43
f 6/6/47 5/5/46 41/83/43
f 7/7/48 6/6/47 41/83/43
f 8/8/49 7/7/48 41/83/43
f 9/9/50 8/8/49 41/83/43
f 10/10/51 9/9/50 41/83/43
f 11/11/52 10/10/51 41/83/43
f 12/12/53 11/11/52 41/83/43
f 13/13/54 12/12/53 41/83/43
f 14/14/55 13/13/54 41/83/43
f 15/15/56 14/14/55 41/83/43
f 16/16/57 15/15/56 41/83/43
f 17/17/58 16/16/57 41/83/43
f 18/18/59 17/17/58 41/83/43
f 19/19/60 18/18/59 41/83/43
f 20/20/61 19/19/60 41/83/43
f 1/1/42 20/20/61 41/83/43
s 3
f 21/81/62 22/80/63 42/84/64
f 22/80/63 23/79/65 42/84/64
f 23/79/65 24/78/66 42/84/64
f 24/78/66 25/77/67 42/84/64
f 25/77/67 26/76/68 42/84/64
f 26/76/68 27/75/69 42/84/64
f 27/75/69 28/74/70 42/84/64
f 28/74/70 29/73/71 42/84/64
f 29/73/71 30/72/72 42/84/64
f 30/72/72 31/71/73 42/84/64
f 31/71/73 32/70/74 42/84/64
f 32/70/74 33/69/75 42/84/64
f 33/69/75 34/68/76 42/84/64
f 34/68/76 35/67/77 42/84/64
f 35/67/77 36/66/78 42/84/64
f 36/66/78 37/65/79 42/84/64
f 37/65/79 38/64/80 42/84/64
f 38/64/80 39/63/81 42/84/64
f 39/63/81 40/82/82 42/84/64
f 40/82/82 21/81/62 42/84/64
