# This file uses centimeters as units for non-parametric coordinates.

mtllib prisma_disparo.mtl
g default
v -0.816121 0.013743 0.500000
v 0.816121 0.013743 0.500000
v -0.816121 1.013743 0.500000
v 0.816121 1.013743 0.500000
v -0.816121 1.013742 -0.500000
v 0.816121 1.013742 -0.500000
v -0.816121 0.013742 -0.500000
v 0.816121 0.013742 -0.500000
v 2.170915 0.512393 -0.001350
v 2.170915 0.512393 0.000000
v 2.170915 0.513743 -0.001350
v 2.170915 0.513743 -0.000000
v 2.170915 0.512393 0.001350
v 2.170915 0.513743 0.001350
v 2.170915 0.515093 -0.001350
v 2.170915 0.515093 0.000000
v 2.170915 0.515093 0.001350
v -2.170915 0.512393 -0.001350
v -2.170915 0.512393 0.000000
v -2.170915 0.513743 -0.000000
v -2.170915 0.513743 -0.001350
v -2.170915 0.512393 0.001350
v -2.170915 0.513743 0.001350
v -2.170915 0.515093 0.000000
v -2.170915 0.515093 -0.001350
v -2.170915 0.515093 0.001350
vt 0.247077 0.000000
vt 0.785583 0.768357
vt 0.254156 0.206268
vt 0.771627 0.204933
vt 0.254547 0.391924
vt 0.772239 0.393684
vt 0.253320 0.574960
vt 0.772685 0.573598
vt 0.999312 0.392947
vt 0.000618 0.388881
vt 0.999663 0.393045
vt 0.999327 0.393196
vt 0.999072 0.393121
vt 1.000000 0.392891
vt 0.999491 0.392787
vt 0.998810 0.393057
vt 0.998916 0.392873
vt 0.998991 0.392692
vt 0.001042 0.389131
vt 0.000527 0.389028
vt 0.001045 0.388965
vt 0.000000 0.388911
vt 0.000328 0.388752
vt 0.000879 0.388704
vt 0.001123 0.388785
vt 0.000656 0.388596
vt 0.263554 0.762785
vt 0.769102 0.005614
vn 0.082493 0.000000 0.996592
vn 0.082493 0.000000 0.996592
vn -0.082493 0.000000 0.996592
vn -0.082493 0.000000 0.996592
vn 0.082493 0.996592 -0.000000
vn 0.082493 0.996592 -0.000000
vn -0.082493 0.996592 -0.000000
vn -0.082493 0.996592 -0.000000
vn 0.082493 0.000000 -0.996592
vn 0.082493 0.000000 -0.996592
vn -0.082493 -0.000000 -0.996592
vn -0.082493 -0.000000 -0.996592
vn 0.082493 -0.996592 0.000000
vn 0.082493 -0.996592 0.000000
vn -0.082493 -0.996592 0.000000
vn -0.082493 -0.996592 0.000000
vn 1.000000 -0.000000 0.000000
vn 1.000000 -0.000000 0.000000
vn 1.000000 0.000000 0.000000
vn 1.000000 0.000000 0.000000
vn 1.000000 0.000000 0.000000
vn 1.000000 0.000000 0.000000
vn 1.000000 0.000000 0.000000
vn 1.000000 0.000000 0.000000
vn 1.000000 0.000000 0.000000
vn -1.000000 0.000000 0.000000
vn -1.000000 0.000000 0.000000
vn -1.000000 0.000000 0.000000
vn -1.000000 0.000000 0.000000
vn -1.000000 0.000000 0.000000
vn -1.000000 0.000000 0.000000
vn -1.000000 -0.000000 0.000000
vn -1.000000 0.000000 0.000000
vn -1.000000 -0.000000 0.000000
vn 0.345410 0.000000 -0.938452
vn 0.345410 0.000000 -0.938452
vn 0.345410 0.000000 -0.938452
vn 0.345410 -0.938452 0.000000
vn 0.345410 -0.938452 0.000000
vn 0.345410 -0.938452 0.000000
vn 0.345410 0.938452 -0.000000
vn 0.345410 0.938452 -0.000000
vn 0.345410 0.938452 -0.000000
vn 0.345410 0.000000 0.938452
vn 0.345410 0.000000 0.938452
vn 0.345410 0.000000 0.938452
vn -0.345410 -0.938452 0.000000
vn -0.345410 -0.938452 0.000000
vn -0.345410 -0.938452 0.000000
vn -0.345410 0.000000 0.938452
vn -0.345410 0.000000 0.938452
vn -0.345410 0.000000 0.938452
vn -0.345410 -0.000000 -0.938452
vn -0.345410 -0.000000 -0.938452
vn -0.345410 -0.000000 -0.938452
vn -0.345410 0.938452 0.000000
vn -0.345410 0.938452 0.000000
vn -0.345410 0.938452 0.000000
s 1
g pCube1
usemtl initialShadingGroup
f 2/28/1 4/4/2 3/3/3 1/1/4
s 2
f 4/4/5 6/6/6 5/5/7 3/3/8
s 3
f 6/6/9 8/8/10 7/7/11 5/5/12
s 4
f 8/8/13 2/2/14 1/27/15 7/7/16
s 5
f 10/11/17 9/12/18 11/13/19 12/9/20
f 13/14/21 10/11/17 12/9/20 14/15/22
f 12/9/20 11/13/19 15/16/23 16/17/24
f 14/15/22 12/9/20 16/17/24 17/18/25
s 6
f 18/19/26 19/20/27 20/10/28 21/21/29
f 19/20/27 22/22/30 23/23/31 20/10/28
f 21/21/29 20/10/28 24/24/32 25/25/33
f 20/10/28 23/23/31 26/26/34 24/24/32
s 3
f 11/13/35 9/12/36 8/8/10 6/6/9 15/16/37
s 4
f 10/11/38 13/14/39 2/2/14 8/8/13 9/12/40
s 2
f 16/17/41 15/16/42 6/6/6 4/4/5 17/18/43
s 1
f 14/15/44 17/18/45 4/4/2 2/28/1 13/14/46
s 4
f 19/20/47 18/19/48 7/7/16 1/27/15 22/22/49
s 1
f 23/23/50 22/22/51 1/1/4 3/3/3 26/26/52
s 3
f 21/21/53 25/25/54 5/5/12 7/7/11 18/19/55
s 2
f 24/24/56 26/26/57 3/3/8 5/5/7 25/25/58
