# This file uses centimeters as units for non-parametric coordinates.

mtllib tetraedro_low.mtl
g default
v -0.018062 0.475147 -0.155455
v 0.128525 0.659656 -0.006414
v 0.645241 -0.175592 -0.007395
v 0.457320 -0.276504 -0.148730
v 0.010421 0.848451 -0.002492
v -0.088174 0.850890 -0.057395
v -0.253609 0.576859 -0.256708
v -0.247849 -0.276962 -0.555566
v -0.490225 -0.209822 -0.674949
v -0.178800 0.845482 -0.116265
v 0.422344 -0.274937 -0.142531
v 0.376493 -0.274252 -0.101147
v -0.055293 0.406910 -0.100602
v -0.033138 0.436534 -0.137350
v -0.251550 -0.280106 -0.465485
v -0.235012 -0.277291 -0.503809
v -0.471050 -0.481437 -0.757129
v -0.543627 -0.393546 -0.769633
v -0.201398 -0.569538 -0.632955
v 0.535105 -0.568450 -0.208798
v 0.751802 -0.351418 -0.001179
v 0.710812 -0.462779 -0.070891
v 0.686387 -0.564985 -0.122915
v -0.416861 -0.568340 -0.737094
v -0.278938 0.505217 -0.004867
v -0.512548 -0.296072 -0.426192
v -0.509608 -0.290829 0.424848
v -0.489287 -0.203090 0.662983
v -0.241757 0.639217 0.209954
v -0.178496 0.847957 0.013369
v -0.179931 0.849504 0.106248
v -0.247860 0.454245 -0.000036
v -0.189707 0.422245 -0.001903
v -0.407189 -0.290705 0.374854
v -0.466404 -0.288713 0.389020
v -0.451179 -0.288509 -0.392730
v -0.402810 -0.294530 -0.372707
v -0.571546 -0.492105 -0.693707
v -0.588999 -0.569854 -0.410936
v -0.596214 -0.568101 -0.643820
v -0.588567 -0.564183 0.603934
v -0.556793 -0.476653 0.668525
v -0.594934 -0.564145 0.351620
v -0.532316 -0.351054 0.740895
v -0.032347 0.511827 0.143337
v -0.276915 -0.295172 0.578935
v 0.485369 -0.300943 0.139981
v -0.235210 -0.568239 0.653699
v 0.545900 -0.566256 0.203265
v -0.073053 0.847552 0.046279
v 0.692277 -0.566722 0.119114
v 0.730975 -0.440894 0.044738
v -0.445638 -0.459636 0.735607
v -0.371469 -0.568841 0.732493
v -0.065760 0.444622 0.076812
v -0.043786 0.467062 0.110735
v -0.269141 -0.296134 0.518680
v -0.274384 -0.299697 0.470198
v 0.393974 -0.302264 0.088710
v 0.433168 -0.295689 0.117064
v 0.435174 -0.569647 0.000941
v -0.356192 -0.565238 0.437109
v -0.354735 -0.565869 -0.445086
v -0.503845 -0.569338 -0.683108
v -0.483415 -0.556475 0.673106
v 0.693118 -0.562346 0.000984
v -0.320280 -0.481607 -0.386090
v -0.330195 -0.520991 -0.400679
v 0.364294 -0.518542 0.001499
v 0.345522 -0.480615 0.006475
v -0.321028 -0.482114 0.387350
v -0.329551 -0.520659 0.398864
vt 0.459441 0.696127
vt 0.959175 0.000000
vt 0.873041 0.363150
vt 0.245188 0.757182
vt 0.038532 0.019408
vt 0.024413 0.000000
vt 0.777496 0.434266
vt 0.635350 0.194390
vt 0.651219 0.863270
vt 0.587553 0.112940
vt 0.014833 0.851558
vt 0.238669 0.766848
vt 0.226651 0.781465
vt 0.030437 0.854297
vt 0.200122 0.971852
vt 0.204656 0.983560
vt 0.000000 0.051195
vt 0.037956 0.049218
vt 0.431393 0.016238
vt 0.736909 0.884472
vt 0.859655 0.087346
vt 0.527111 0.004301
vt 0.488857 0.010978
vt 0.072096 0.052423
vt 0.704122 0.465965
vt 0.922842 0.409541
vt 0.970351 0.148958
vt 0.061066 0.666315
vt 0.493249 0.184347
vt 0.013004 0.044828
vt 0.910003 0.110028
vt 0.917594 0.391063
vt 0.911309 0.373212
vt 0.947283 0.175753
vt 0.958147 0.161816
vt 0.768495 0.232799
vt 0.753920 0.229850
vt 0.023885 0.086068
vt 0.040739 0.112062
vt 0.086868 0.173922
vt 0.229569 0.382756
vt 0.278975 0.450305
vt 0.080821 0.232050
vt 0.020193 0.104893
vt 0.573339 0.000000
vt 0.700091 0.276770
vt 0.860601 0.013761
vt 0.384754 0.396992
vt 0.226903 0.383649
vt 0.001531 0.005996
vt 0.536327 0.075939
vt 0.556956 0.030295
vt 0.015408 0.217525
vt 0.000000 0.284929
vt 0.701900 0.256087
vt 0.703022 0.241232
vt 0.605061 0.021186
vt 0.591437 0.011540
vt 0.828057 0.030781
vt 0.842574 0.023649
vt 0.281743 0.292872
vt 0.411250 0.150127
vt 0.220515 0.113118
vt 0.058222 0.083500
vt 0.063432 0.275372
vt 0.514266 0.043451
vt 0.239521 0.130121
vt 0.232364 0.123908
vt 0.382994 0.160456
vt 0.391970 0.156709
vt 0.285046 0.277890
vt 0.286846 0.268809
vt 0.447090 0.480679
vt 0.732788 0.224243
vt 0.560785 0.222169
vt 0.708634 0.635688
vt -0.000000 0.849082
vt 0.793853 0.370463
vt 0.055556 0.628920
vt 0.370267 0.727841
vt 0.210387 1.000000
vt 0.443860 0.092281
vt 0.144152 0.120247
vt 0.310790 0.360873
vt 0.138052 0.289968
vt 0.512287 0.126496
vt 0.320780 0.449325
vt 0.098384 0.320197
vt 0.362708 0.444311
vt 0.522451 0.312774
vt 0.373454 0.458109
vt 0.841349 0.075539
vt 0.106235 0.295647
vt 0.753491 0.549188
vt 0.062665 0.275724
vt 0.970972 0.069577
vt 0.946485 0.087984
vt 0.520310 0.116174
vt 0.525154 0.356745
vt 0.695829 0.563037
vt 0.419800 0.626192
vt 0.000000 0.557256
vt 0.020355 0.308465
vt 0.574218 0.380954
vt 0.342489 0.803381
vt 0.103952 0.361665
vt 0.193608 0.361632
vt 0.612107 0.312741
vt 0.098955 0.598102
vt 0.352824 0.506085
vt 0.831173 0.071606
vt 0.793853 0.158444
vt 0.068916 0.382486
vt 0.275464 0.457670
vt 0.940338 0.085780
vt 0.000000 0.033407
vt 0.869127 0.000000
vt 0.875274 0.002203
vt 0.845258 0.671453
vt 0.873041 0.151131
vt 0.929158 0.669250
vt 0.705031 0.552071
vt 0.474767 0.565691
vt 0.377216 0.543259
vt 0.398558 0.570081
vt 0.166615 0.295286
vt 0.788853 0.522574
vt 0.775371 0.547674
vt 0.809788 0.490182
vt 0.548373 0.114705
vt 0.342646 0.702196
vt 0.612769 0.933727
vt 0.411808 0.759806
vt 0.796741 0.646856
vt 0.150468 0.040051
vt 0.718779 0.951043
vt 0.690246 0.960586
vt 0.808214 0.598021
vt 0.781537 0.577257
vt 0.572546 0.000000
vt 0.659788 0.973440
vt 0.039492 0.047878
vt 0.348362 0.671529
vt 0.357131 0.640190
vn 0.472385 0.292316 -0.831507
vn 0.472385 0.292316 -0.831507
vn 0.472385 0.292316 -0.831507
vn 0.472385 0.292316 -0.831507
vn 0.464805 0.305116 -0.831180
vn 0.464805 0.305116 -0.831180
vn 0.464805 0.305116 -0.831180
vn 0.464805 0.305116 -0.831180
vn 0.483992 0.292006 -0.824915
vn 0.483992 0.292006 -0.824915
vn 0.483992 0.292006 -0.824915
vn 0.483992 0.292006 -0.824915
vn 0.490238 0.299401 -0.818551
vn 0.490238 0.299402 -0.818551
vn 0.490238 0.299402 -0.818551
vn 0.490238 0.299402 -0.818551
vn -0.617744 -0.390768 -0.682416
vn -0.617744 -0.390768 -0.682416
vn -0.617745 -0.390768 -0.682416
vn -0.617745 -0.390768 -0.682416
vn -0.306942 -0.196264 -0.931272
vn -0.306942 -0.196264 -0.931272
vn -0.306942 -0.196264 -0.931272
vn -0.306942 -0.196264 -0.931272
vn 0.874901 -0.394972 0.280261
vn 0.874901 -0.394972 0.280261
vn 0.874901 -0.394972 0.280261
vn 0.874901 -0.394972 0.280261
vn 0.967401 -0.233126 -0.098937
vn 0.967401 -0.233126 -0.098937
vn 0.967401 -0.233126 -0.098937
vn 0.967401 -0.233126 -0.098937
vn 0.486018 0.284348 -0.826398
vn 0.486018 0.284348 -0.826398
vn 0.486018 0.284348 -0.826398
vn 0.486018 0.284348 -0.826398
vn 0.486849 0.293087 -0.822847
vn 0.486849 0.293087 -0.822847
vn 0.486849 0.293087 -0.822847
vn 0.486849 0.293087 -0.822847
vn 0.470949 0.299709 -0.829688
vn 0.470949 0.299709 -0.829688
vn 0.470949 0.299709 -0.829688
vn 0.470949 0.299709 -0.829688
vn 0.471611 0.252756 -0.844806
vn 0.471611 0.252756 -0.844806
vn 0.471611 0.252756 -0.844806
vn 0.471611 0.252756 -0.844806
vn 0.476775 0.295976 -0.827698
vn 0.476775 0.295976 -0.827698
vn 0.476776 0.295976 -0.827698
vn 0.476776 0.295976 -0.827698
vn -0.014884 0.999776 0.015059
vn -0.014884 0.999776 0.015059
vn -0.014884 0.999776 0.015059
vn -0.014884 0.999776 0.015059
vn 0.008209 0.999800 -0.018220
vn 0.008209 0.999800 -0.018220
vn 0.008209 0.999800 -0.018220
vn 0.008209 0.999800 -0.018220
vn 0.476172 0.302504 -0.825683
vn 0.476172 0.302504 -0.825683
vn 0.476172 0.302504 -0.825683
vn -0.958631 0.284647 -0.001473
vn -0.958631 0.284647 -0.001473
vn -0.958631 0.284647 -0.001473
vn -0.958631 0.284647 -0.001473
vn -0.961613 0.274140 -0.012128
vn -0.961613 0.274140 -0.012128
vn -0.961613 0.274140 -0.012128
vn -0.961613 0.274140 -0.012128
vn -0.960346 0.278532 -0.012498
vn -0.960346 0.278532 -0.012498
vn -0.960346 0.278532 -0.012498
vn -0.960346 0.278532 -0.012498
vn -0.959971 0.279854 -0.011758
vn -0.959971 0.279854 -0.011758
vn -0.959971 0.279854 -0.011758
vn -0.959971 0.279854 -0.011758
vn -0.235938 -0.396102 -0.887376
vn -0.235938 -0.396102 -0.887376
vn -0.235938 -0.396102 -0.887376
vn -0.235938 -0.396102 -0.887376
vn -0.519893 -0.277977 -0.807738
vn -0.519893 -0.277977 -0.807738
vn -0.519893 -0.277977 -0.807738
vn -0.519893 -0.277977 -0.807738
vn -0.285341 -0.379072 0.880275
vn -0.285341 -0.379072 0.880275
vn -0.285341 -0.379072 0.880275
vn -0.285341 -0.379072 0.880275
vn -0.481433 -0.298268 0.824171
vn -0.481433 -0.298268 0.824171
vn -0.481433 -0.298268 0.824171
vn -0.481433 -0.298268 0.824171
vn -0.961037 0.276287 0.008551
vn -0.961037 0.276287 0.008551
vn -0.961037 0.276287 0.008551
vn -0.961037 0.276287 0.008551
vn -0.959608 0.280765 0.017967
vn -0.959608 0.280765 0.017967
vn -0.959608 0.280765 0.017967
vn -0.959608 0.280765 0.017967
vn -0.954269 0.297143 0.032817
vn -0.954269 0.297143 0.032817
vn -0.954269 0.297143 0.032817
vn -0.954269 0.297143 0.032817
vn -0.970707 0.239045 -0.024194
vn -0.970707 0.239045 -0.024194
vn -0.970707 0.239045 -0.024194
vn -0.970707 0.239045 -0.024194
vn -0.958840 0.283923 -0.003707
vn -0.958840 0.283923 -0.003707
vn -0.958840 0.283923 -0.003707
vn -0.958840 0.283923 -0.003707
vn 0.074354 0.997231 -0.001408
vn 0.074354 0.997231 -0.001408
vn 0.074354 0.997231 -0.001408
vn 0.074354 0.997231 -0.001408
vn -0.092253 0.995729 -0.003767
vn -0.092253 0.995728 -0.003767
vn -0.092253 0.995728 -0.003767
vn -0.092253 0.995729 -0.003767
vn -0.957502 0.288339 -0.007084
vn -0.957502 0.288339 -0.007084
vn -0.957502 0.288339 -0.007084
vn 0.459180 0.311280 0.832021
vn 0.459180 0.311280 0.832021
vn 0.459180 0.311280 0.832021
vn 0.459180 0.311280 0.832021
vn 0.492690 0.307111 0.814211
vn 0.492690 0.307111 0.814211
vn 0.492690 0.307111 0.814211
vn 0.492690 0.307111 0.814211
vn 0.476503 0.302182 0.825609
vn 0.476503 0.302182 0.825609
vn 0.476503 0.302182 0.825609
vn 0.476503 0.302182 0.825609
vn 0.455814 0.291582 0.840960
vn 0.455814 0.291582 0.840960
vn 0.455814 0.291582 0.840960
vn 0.455814 0.291582 0.840960
vn 0.488625 0.293817 0.821533
vn 0.488625 0.293817 0.821534
vn 0.488625 0.293817 0.821534
vn 0.488625 0.293817 0.821534
vn 0.485827 0.314176 0.815638
vn 0.485827 0.314176 0.815638
vn 0.485827 0.314176 0.815638
vn 0.485827 0.314176 0.815638
vn 0.490204 0.317890 0.811570
vn 0.490204 0.317890 0.811570
vn 0.490204 0.317890 0.811570
vn 0.490204 0.317890 0.811570
vn 0.458698 0.313424 0.831482
vn 0.458698 0.313424 0.831482
vn 0.458698 0.313424 0.831482
vn 0.458698 0.313424 0.831482
vn 0.476302 0.299337 0.826761
vn 0.476302 0.299337 0.826761
vn 0.476302 0.299337 0.826761
vn 0.476302 0.299337 0.826761
vn 0.913042 -0.362359 -0.187215
vn 0.913042 -0.362359 -0.187215
vn 0.913042 -0.362359 -0.187215
vn 0.913042 -0.362359 -0.187215
vn 0.966055 -0.244830 0.082439
vn 0.966055 -0.244830 0.082439
vn 0.966055 -0.244829 0.082439
vn 0.966055 -0.244830 0.082439
vn -0.580809 -0.351511 0.734235
vn -0.580809 -0.351511 0.734235
vn -0.580809 -0.351511 0.734235
vn -0.580809 -0.351511 0.734235
vn -0.504196 -0.316797 0.803385
vn -0.504196 -0.316797 0.803385
vn -0.504196 -0.316797 0.803385
vn -0.504196 -0.316797 0.803385
vn -0.055139 0.993538 -0.099202
vn -0.055139 0.993538 -0.099202
vn -0.055139 0.993538 -0.099202
vn -0.055139 0.993538 -0.099202
vn 0.025428 0.998955 0.037975
vn 0.025428 0.998955 0.037975
vn 0.025428 0.998955 0.037975
vn 0.025428 0.998955 0.037975
vn 0.473079 0.304367 0.826775
vn 0.473079 0.304367 0.826775
vn 0.473079 0.304367 0.826775
vn -0.000777 -0.999999 0.001358
vn -0.000777 -0.999999 0.001358
vn -0.000777 -0.999999 0.001358
vn -0.000777 -0.999999 0.001358
vn 0.005694 -0.999976 0.003881
vn 0.005694 -0.999976 0.003881
vn 0.005694 -0.999976 0.003881
vn 0.005694 -0.999976 0.003881
vn -0.003894 -0.999986 0.003739
vn -0.003894 -0.999986 0.003739
vn -0.003894 -0.999986 0.003739
vn -0.003894 -0.999985 0.003739
vn -0.002141 -0.999958 0.008917
vn -0.002141 -0.999958 0.008917
vn -0.002141 -0.999958 0.008917
vn -0.002141 -0.999958 0.008917
vn 0.008595 -0.999963 0.000790
vn 0.008595 -0.999963 0.000790
vn 0.008595 -0.999963 0.000790
vn 0.008595 -0.999963 0.000790
vn -0.048483 -0.998716 -0.014690
vn -0.048483 -0.998716 -0.014690
vn -0.048483 -0.998716 -0.014690
vn -0.048483 -0.998716 -0.014690
vn 0.010074 -0.999742 0.020355
vn 0.010074 -0.999742 0.020355
vn 0.010074 -0.999742 0.020355
vn 0.010074 -0.999742 0.020355
vn 0.023985 -0.999652 0.011024
vn 0.023985 -0.999652 0.011024
vn 0.023985 -0.999652 0.011024
vn 0.023985 -0.999652 0.011024
vn 0.015181 -0.999851 -0.008282
vn 0.015181 -0.999851 -0.008282
vn 0.015181 -0.999851 -0.008282
vn 0.015181 -0.999851 -0.008282
vn 0.956573 -0.267328 -0.116208
vn 0.956573 -0.267328 -0.116208
vn 0.956573 -0.267328 -0.116208
vn 0.956573 -0.267328 -0.116208
vn 0.976775 -0.208679 -0.048619
vn 0.976775 -0.208679 -0.048619
vn 0.976775 -0.208679 -0.048619
vn 0.955114 -0.296209 -0.004175
vn 0.955114 -0.296209 -0.004175
vn 0.955114 -0.296209 -0.004175
vn -0.028105 0.999590 0.005556
vn -0.028105 0.999590 0.005556
vn -0.028105 0.999590 0.005556
vn -0.028105 0.999590 0.005556
vn 0.008994 0.999823 -0.016521
vn 0.008994 0.999823 -0.016521
vn 0.008994 0.999823 -0.016521
vn 0.007406 0.999489 0.031098
vn 0.007406 0.999489 0.031098
vn 0.007406 0.999489 0.031098
vn -0.436572 -0.373955 0.818268
vn -0.436572 -0.373955 0.818268
vn -0.436572 -0.373955 0.818268
vn -0.436572 -0.373955 0.818268
vn -0.483201 -0.399485 0.779056
vn -0.483201 -0.399485 0.779056
vn -0.483201 -0.399485 0.779056
vn -0.469571 -0.342127 0.813911
vn -0.469571 -0.342127 0.813911
vn -0.469571 -0.342127 0.813911
vn -0.433023 -0.475045 -0.766044
vn -0.433023 -0.475045 -0.766044
vn -0.433023 -0.475045 -0.766044
vn -0.433023 -0.475045 -0.766044
vn -0.463511 -0.463187 -0.755391
vn -0.463511 -0.463187 -0.755391
vn -0.463511 -0.463187 -0.755391
vn -0.358557 -0.428145 -0.829535
vn -0.358557 -0.428145 -0.829535
vn -0.358557 -0.428145 -0.829535
vn -0.485734 -0.266340 0.832542
vn -0.485734 -0.266340 0.832542
vn -0.485734 -0.266340 0.832542
vn -0.485734 -0.266340 0.832542
vn -0.417033 -0.542842 0.728977
vn -0.417033 -0.542842 0.728977
vn -0.417033 -0.542842 0.728977
vn -0.417033 -0.542842 0.728977
vn 0.973128 -0.230265 0.000039
vn 0.973128 -0.230265 0.000039
vn 0.973128 -0.230265 0.000039
vn 0.973128 -0.230265 0.000039
vn 0.867960 -0.496634 0.000704
vn 0.867960 -0.496634 0.000704
vn 0.867960 -0.496634 0.000704
vn 0.867960 -0.496634 0.000704
vn -0.491433 -0.139358 -0.859694
vn -0.491433 -0.139358 -0.859694
vn -0.491433 -0.139358 -0.859694
vn -0.491433 -0.139358 -0.859694
vn -0.425790 -0.495142 -0.757323
vn -0.425790 -0.495142 -0.757323
vn -0.425790 -0.495142 -0.757322
vn -0.425790 -0.495142 -0.757322
vn 0.001875 -0.999998 -0.000653
vn 0.001875 -0.999998 -0.000653
vn 0.001875 -0.999998 -0.000653
s off
g polySurface1
usemtl aiStandardSurface1SG
f 3/100/1 4/76/2 1/1/3 2/101/4
f 6/143/5 5/144/6 2/101/7 1/1/8
f 7/133/9 1/1/10 8/9/11 9/132/12
f 7/133/13 10/131/14 6/143/15 1/1/16
f 11/12/17 12/13/18 13/14/19 14/11/20
f 4/4/21 11/12/22 14/11/23 1/77/24
f 14/11/25 13/14/26 15/15/27 16/16/28
f 1/77/29 14/11/30 16/16/31 8/81/32
f 18/141/33 9/132/34 8/9/35 17/137/36
f 3/100/37 21/94/38 22/139/39 4/76/40
f 20/134/41 4/76/42 22/139/43 23/138/44
f 19/20/45 24/136/46 17/137/47 8/9/48
f 4/76/49 20/134/50 19/20/51 8/9/52
f 15/15/53 12/13/54 11/12/55 16/16/56
f 11/12/57 4/4/58 8/81/59 16/16/60
f 13/14/61 12/13/62 15/15/63
f 25/75/64 7/8/65 9/7/66 26/25/67
f 27/73/68 28/91/69 29/29/70 25/75/71
f 25/75/72 30/130/73 10/10/74 7/8/75
f 29/29/76 31/98/77 30/130/78 25/75/79
f 33/33/80 34/34/81 35/35/82 32/32/83
f 35/35/84 27/27/85 25/26/86 32/32/87
f 37/36/88 33/33/89 32/32/90 36/37/91
f 32/32/92 25/26/93 26/74/94 36/37/95
f 9/7/96 18/129/97 38/127/98 26/25/99
f 40/128/100 39/122/101 26/25/102 38/127/103
f 43/123/104 41/125/105 42/124/106 27/73/107
f 44/110/108 28/91/109 27/73/110 42/124/111
f 43/123/112 27/73/113 26/25/114 39/122/115
f 35/35/116 34/34/117 37/36/118 36/37/119
f 27/27/120 35/35/121 36/37/122 26/74/123
f 34/34/124 33/33/125 37/36/126
f 28/28/127 46/109/128 45/80/129 29/105/130
f 47/78/131 3/3/132 2/121/133 45/119/134
f 46/79/135 48/102/136 49/49/137 47/114/138
f 31/31/139 29/92/140 45/117/141 50/115/142
f 2/2/143 5/96/144 50/97/145 45/118/146
f 47/113/147 49/103/148 51/95/149 52/93/150
f 21/21/151 3/120/152 47/112/153 52/111/154
f 28/104/155 44/99/156 53/90/157 46/108/158
f 53/106/159 54/88/160 48/85/161 46/107/162
f 58/57/163 55/56/164 56/55/165 57/58/166
f 56/55/167 45/46/168 46/45/169 57/58/170
f 56/55/171 55/56/172 59/59/173 60/60/174
f 47/47/175 45/46/176 56/55/177 60/60/178
f 59/59/179 58/57/180 57/58/181 60/60/182
f 57/58/183 46/45/184 47/47/185 60/60/186
f 55/56/187 58/57/188 59/59/189
f 48/48/190 62/84/191 61/82/192 49/86/193
f 62/84/194 43/41/195 39/40/196 63/83/197
f 20/19/198 61/82/199 63/83/200 19/135/201
f 64/64/202 24/24/203 19/135/204 63/83/205
f 39/40/206 40/39/207 64/64/208 63/83/209
f 54/89/210 65/87/211 62/84/212 48/48/213
f 41/42/214 43/41/215 62/84/216 65/87/217
f 20/19/218 23/23/219 66/66/220 61/82/221
f 51/51/222 49/86/223 61/82/224 66/66/225
f 52/52/226 66/66/227 22/22/228 21/140/229
f 66/66/230 23/23/231 22/22/232
f 66/66/233 52/52/234 51/51/235
f 10/142/236 30/30/237 50/50/238 6/5/239
f 50/50/240 30/30/241 31/116/242
f 6/5/243 50/50/244 5/6/245
f 53/53/246 44/44/247 42/43/248 65/65/249
f 41/126/250 65/65/251 42/43/252
f 65/65/253 54/54/254 53/53/255
f 38/38/256 18/17/257 17/18/258 64/64/259
f 17/18/260 24/24/261 64/64/262
f 38/38/263 64/64/264 40/39/265
f 70/69/266 67/67/267 68/68/268 69/70/269
f 68/68/270 63/63/271 61/62/272 69/70/273
f 67/67/274 71/72/275 72/71/276 68/68/277
f 62/61/278 63/63/279 68/68/280 72/71/281
f 71/72/282 70/69/283 69/70/284 72/71/285
f 61/62/286 62/61/287 72/71/288 69/70/289
f 67/67/290 70/69/291 71/72/292
